<svg xmlns="http://www.w3.org/2000/svg" xmlns:xlink="http://www.w3.org/1999/xlink" width="24" height="24" viewBox="0 0 24 24">
  <defs>
    <clipPath id="clip-path">
      <rect id="Rectangle_296" data-name="Rectangle 296" width="24" height="24" transform="translate(865.521 766.67)" fill="#000421" stroke="rgba(0,0,0,0)" stroke-miterlimit="10" stroke-width="1"/>
    </clipPath>
  </defs>
  <g id="log_in" data-name="log in" transform="translate(-865.521 -766.67)" clip-path="url(#clip-path)">
    <g id="Group_634" data-name="Group 634">
      <g id="Group_632" data-name="Group 632">
        <g id="Group_631" data-name="Group 631">
          <g id="Group_630" data-name="Group 630">
            <path id="Path_301" data-name="Path 301" d="M880.719,779.62l-1.79,1.8a.543.543,0,0,1-.36.14.518.518,0,0,1-.35-.14.5.5,0,0,1,0-.71l1.53-1.54h-10.32a.5.5,0,0,1,0-1h10.32l-1.53-1.54a.5.5,0,0,1,0-.71.513.513,0,0,1,.71,0l1.79,1.8A1.352,1.352,0,0,1,880.719,779.62Z" fill="#000421" stroke="rgba(0,0,0,0)" stroke-miterlimit="10" stroke-width="1"/>
          </g>
        </g>
      </g>
      <g id="Group_633" data-name="Group 633">
        <path id="Path_302" data-name="Path 302" d="M883.612,787.171h-6a.5.5,0,0,1,0-1h6a1.5,1.5,0,0,0,1.5-1.5v-12a1.5,1.5,0,0,0-1.5-1.5h-6a.5.5,0,0,1,0-1h6a2.5,2.5,0,0,1,2.5,2.5v12A2.5,2.5,0,0,1,883.612,787.171Z" fill="#000421" stroke="rgba(0,0,0,0)" stroke-miterlimit="10" stroke-width="1"/>
      </g>
    </g>
  </g>
</svg>
