<svg xmlns="http://www.w3.org/2000/svg" xmlns:xlink="http://www.w3.org/1999/xlink" width="24" height="24" viewBox="0 0 24 24">
  <defs>
    <clipPath id="clip-path">
      <rect id="Rectangle_21" data-name="Rectangle 21" width="24" height="24" transform="translate(793.437 248.766)" fill="#000421" stroke="rgba(0,0,0,0)" stroke-miterlimit="10" stroke-width="1"/>
    </clipPath>
  </defs>
  <g id="lock" transform="translate(-793.437 -248.766)" clip-path="url(#clip-path)">
    <g id="Group_33" data-name="Group 33">
      <g id="Group_31" data-name="Group 31">
        <g id="Group_29" data-name="Group 29">
          <path id="Path_16" data-name="Path 16" d="M806.437,263.266a.984.984,0,0,1-.5.86v.64a.5.5,0,0,1-1,0v-.64a.984.984,0,0,1-.5-.86,1,1,0,0,1,2,0Z" fill="#000421" stroke="rgba(0,0,0,0)" stroke-miterlimit="10" stroke-width="1"/>
        </g>
        <g id="Group_30" data-name="Group 30">
          <path id="Path_17" data-name="Path 17" d="M811.437,269.266h-12a2.5,2.5,0,0,1-2.5-2.5v-8.5h17v8.5A2.5,2.5,0,0,1,811.437,269.266Zm-13.5-10v7.5a1.5,1.5,0,0,0,1.5,1.5h12a1.5,1.5,0,0,0,1.5-1.5v-7.5Z" fill="#000421" stroke="rgba(0,0,0,0)" stroke-miterlimit="10" stroke-width="1"/>
        </g>
      </g>
      <g id="Group_32" data-name="Group 32">
        <path id="Path_18" data-name="Path 18" d="M813.937,259.266h-17v-2.521a4.484,4.484,0,0,1,4.478-4.479h8.043a4.485,4.485,0,0,1,4.479,4.479Zm-16-1h15v-1.521a3.483,3.483,0,0,0-3.479-3.479h-8.043a3.482,3.482,0,0,0-3.478,3.479Z" fill="#000421" stroke="rgba(0,0,0,0)" stroke-miterlimit="10" stroke-width="1"/>
      </g>
    </g>
  </g>
</svg>
